<?xml version="1.0" standalone="no"?><!DOCTYPE svg PUBLIC "-//W3C//DTD SVG 1.1//EN" "http://www.w3.org/Graphics/SVG/1.1/DTD/svg11.dtd"><svg t="1743061837922" class="icon" viewBox="0 0 1024 1024" version="1.1" xmlns="http://www.w3.org/2000/svg" p-id="2448" xmlns:xlink="http://www.w3.org/1999/xlink" width="200" height="200"><path d="M418.274586 924.292113q0 27.918208-12.962025 49.853944-10.967868 18.944499-36.891918 34.399221t-75.777994 15.454722q-32.903603 0-54.340798-11.466407t-33.402142-26.42259-16.950341-29.413827-5.982473-21.437196q41.877313-0.997079 55.337877-18.445959t13.460565-61.320351l0-474.609542q0-13.959104-0.498539-27.419669t-5.982473-23.431353-17.94742-15.953262-36.393379-4.985394q2.991237-23.929893 14.956183-42.874391 10.967868-16.950341 32.903603-30.410906t60.821811-13.460565q34.89776 0 55.836417 10.967868t32.903603 23.929893q13.959104 15.953262 20.938656 34.89776 28.915287-37.888997 73.783836-57.332035t97.713729-19.443038q56.833496 0 104.693281 20.440117t82.259007 59.824732 53.842259 96.71665 19.443038 130.118793q0 67.801363-17.94742 120.646543t-51.848101 89.737098-81.760467 56.334956-107.684518 19.443038q-106.687439 0-162.523856-65.807205l0 129.620253 0 51.848101zM657.573515 508.510224q0-202.407011-119.649464-202.407011-55.836417 0-90.235638 46.862707t-34.399221 137.596884l0 56.833496q0 89.737098 32.903603 136.599805t86.745862 46.862707q124.634859 0 124.634859-222.348588z" p-id="2449" fill="#ffffff"></path></svg>